<?xml version="1.0" encoding="utf-8"?>
<!-- Generator: Adobe Illustrator 21.1.0, SVG Export Plug-In . SVG Version: 6.00 Build 0)  -->
<svg version="1.1" id="Layer_1" xmlns="http://www.w3.org/2000/svg" xmlns:xlink="http://www.w3.org/1999/xlink" x="0px" y="0px"
	 viewBox="0 0 582 373" style="enable-background:new 0 0 582 373;" xml:space="preserve">
<style type="text/css">
	.st0{clip-path:url(#SVGID_2_);fill:#EE3325;}
	.st1{opacity:0.1;clip-path:url(#SVGID_2_);}
	.st2{fill:#FFFFFF;}
	.st3{clip-path:url(#SVGID_2_);}
	.st4{fill-rule:evenodd;clip-rule:evenodd;fill:#FFFFFF;}
	.st5{fill:none;stroke:#EE3325;stroke-width:1.5;stroke-linecap:round;stroke-linejoin:round;stroke-miterlimit:10;}
	.st6{fill:#EE3325;}
	.st7{font-family:'ProximaNova-Light';}
	.st8{font-size:10px;}
	.st9{letter-spacing:5;}
</style>
<g>
	<defs>
		<rect id="SVGID_1_" x="0" y="0" width="582" height="373"/>
	</defs>
	<clipPath id="SVGID_2_">
		<use xlink:href="#SVGID_1_"  style="overflow:visible;"/>
	</clipPath>
	<rect x="-4" y="-3.5" class="st0" width="590" height="380"/>
	<g class="st1">
		<g>
			<path class="st2" d="M399.6,202.8c1.6-0.7,2.4-2.5,1.8-4.2c-0.2-0.4-0.4-0.8-0.7-1.1l33-51.4c0.7,0.3,1.6,0.3,2.4,0
				c1.6-0.7,2.4-2.5,1.8-4.2c-0.2-0.5-0.6-1-1-1.3l6.8-13.4l2.3,7.7c-0.6,0.3-1.1,0.8-1.3,1.4c-0.7,1.5,0,3.3,1.5,4
				c1.2,0.6,2.7,0.2,3.5-0.8l82.2,47.3c-0.5,1.4,0.2,3.1,1.6,3.7c1.5,0.7,3.3,0,4-1.5c0.4-0.9,0.3-1.8-0.1-2.6l94.6-74.7
				c0.2,0.2,0.4,0.3,0.7,0.5c1.5,0.7,3.3,0,4-1.5c0.7-1.5,0-3.3-1.5-4c-0.4-0.2-0.9-0.3-1.3-0.3L607.8-8.9c0.6-0.3,1.2-0.8,1.5-1.5
				c0.7-1.5,0-3.3-1.5-4c-1.3-0.6-2.8-0.2-3.6,0.9l-56.3-28.2c0.4-1.4-0.3-2.9-1.7-3.5c-1.5-0.7-3.3,0-4,1.5c0,0,0,0.1,0,0.1
				L464.6-58c0-1.1-0.7-2.2-1.8-2.7c-1.5-0.7-3.3,0-4,1.5c-0.4,0.8-0.3,1.7,0,2.5l-4.5,3.2c-0.7-1.5-2.5-2.1-4-1.5
				c-0.9,0.4-1.6,1.2-1.8,2.1L321.3-64.3c0-0.3-0.1-0.6-0.2-0.9c-0.7-1.6-2.5-2.4-4.2-1.8c-1.6,0.7-2.4,2.5-1.8,4.2
				c0.2,0.5,0.5,0.8,0.8,1.2L252,46c-0.7-0.2-1.5-0.3-2.3,0c-1.6,0.7-2.4,2.5-1.8,4.2c0.6,1.4,2,2.2,3.4,1.9l22.8,62.6
				c-1.3,0.8-1.9,2.4-1.3,3.9c0.7,1.6,2.5,2.4,4.2,1.8c0,0,0.1,0,0.1-0.1l49.2,67.6c-0.8,0.9-1.1,2.2-0.6,3.4
				c0.7,1.6,2.5,2.4,4.2,1.8c0.9-0.4,1.5-1.1,1.8-1.9l63.5,8.9c0,0.3,0.1,0.7,0.2,1C396.1,202.7,398,203.5,399.6,202.8z M461.7-54.9
				c0.5,0,0.9-0.1,1.4-0.4l38.4,45.4c-0.1,0.1-0.2,0.3-0.2,0.4c-0.5,1.1-0.3,2.3,0.4,3.1l-20.4,17.3c-0.2-0.1-0.4-0.3-0.6-0.4
				c-1.1-0.5-2.4-0.3-3.3,0.5l-8-5.9l-11.3-37.8L461.7-54.9z M476.5,12C476.5,12,476.5,12,476.5,12c-0.3,0.7-0.4,1.4-0.2,2.1
				l-3.8,1.9l-2.7-9L476.5,12z M533.4,62.3c-0.1,0.1-0.1,0.2-0.2,0.3c-0.5,1-0.3,2.1,0.3,3l-28.3,29.8c-0.1-0.1-0.2-0.1-0.3-0.2
				c-1.2-0.5-2.5-0.2-3.4,0.6L470,75.3l11.3-22.2c0.7,0.2,1.4,0.2,2.1-0.1c1.6-0.7,2.4-2.5,1.8-4.2c-0.5-1.3-1.9-2.1-3.3-2
				l-8.9-29.8l4-2c0.3,0.4,0.7,0.7,1.1,0.9c1,0.5,2.2,0.3,3.1-0.3l32.5,29L533.4,62.3z M471.7,17.7l8.9,29.6c-0.7,0.4-1.2,1-1.5,1.7
				l-54.6-7.8l9.5-4.7L471.7,17.7z M471.4,16.5l-15.2,7.6l-33.7,16.8l-1.4-0.2c-0.2-0.1-0.3-0.2-0.5-0.3c-0.4-0.2-0.8-0.3-1.2-0.3
				l-2.6-14l17-37.4l16.2,4.6c-0.1,1.2,0.6,2.4,1.7,3c1.1,0.5,2.4,0.3,3.3-0.5l13.2,9.9L471.4,16.5z M412.8,38.5
				c-0.2-0.6-0.6-1-1.1-1.4l4.1-9.1l2.3,12.2l-5.1-0.7C413,39.2,412.9,38.8,412.8,38.5z M407.3,37.8c-0.3,0.4-0.5,0.9-0.6,1.5
				l-43.5,2.3c0-0.1-0.1-0.3-0.1-0.4c-0.6-1.4-2.1-2.2-3.5-1.9L320-60.8L407.3,37.8z M361,45.4c0.1,0,0.2,0,0.3-0.1
				c1.1-0.4,1.8-1.4,1.9-2.5l43.5-2.3c0,0.1,0.1,0.3,0.1,0.4c0.5,1.3,1.8,2,3.1,2l23.5,97.5c-0.6,0.3-1.1,0.8-1.5,1.4l-61.8-18.8
				c0-0.5,0-1-0.2-1.5c-0.5-1.1-1.5-1.8-2.6-2l-4.2-48.7L361,45.4z M422.1,44.2c0.2-0.6,0.3-1.3,0.1-1.9l0.3-0.2l56.4,8.1
				c0,0.3,0.1,0.7,0.2,1c0.2,0.5,0.6,1,1,1.3l-11.2,22.1L455.7,66L422.1,44.2z M630.5,108.6l-123.9-11c-0.1-0.5-0.2-1-0.5-1.4
				l28.3-29.8c0.1,0.1,0.2,0.1,0.3,0.2c1.3,0.6,2.9,0.2,3.7-1l5,2.3L630.5,108.6z M603.8-10.5c0.1,0.2,0.2,0.4,0.3,0.6l-66.6,71.2
				c-0.1-0.1-0.2-0.1-0.3-0.2c-1-0.5-2.2-0.3-3.1,0.3L511,40.8l-29.2-26c0.1-0.1,0.1-0.2,0.2-0.3c0.2-0.4,0.3-0.8,0.3-1.2l18.5-3.6
				L603.8-10.5z M467.6,3.8l-12-8.9c0,0,0,0,0,0c0.7-1.5,0-3.3-1.5-4c-0.1,0-0.1,0-0.2-0.1l3.5-20.7L467.6,3.8z M452.8-9.4
				c-1.1,0-2.1,0.6-2.6,1.6l-16.1-4.6l16.6-36.5c0.3,0.1,0.7,0.1,1,0.1l4.9,16.4L452.8-9.4z M432.9-12.7l-22.5-6.4
				c0-0.5,0-1-0.3-1.5l38.9-27.7L432.9-12.7z M410.1-18l22.3,6.4L421,13.5L416.3,24l-7.7-40.6C409.2-16.9,409.8-17.4,410.1-18z
				 M254.1,49.5l103-6.3c0,0.1,0.1,0.3,0.1,0.4c0.5,1.1,1.5,1.8,2.6,2l1.1,13l5.2,61c-0.1,0-0.2,0-0.3,0.1c-0.4,0.2-0.8,0.4-1.1,0.8
				L253.9,50.2C254,49.9,254,49.7,254.1,49.5z M421.4,45.2l21.5,14l25.4,16.5L443.9,124l-23.2-78.3C421,45.6,421.2,45.4,421.4,45.2z
				 M450,136.5l51.5-36.4c0.2,0.2,0.5,0.4,0.8,0.6c0.5,0.2,1.1,0.3,1.6,0.2l16.7,48.6l12.3,35.8c-0.3,0.2-0.5,0.4-0.7,0.6
				l-82.2-47.3C450.4,137.9,450.3,137.2,450,136.5z M535.8,185.2c-0.5-0.2-1.1-0.3-1.6-0.2l-2.4-7l-26.6-77.4c0.5-0.3,1-0.8,1.2-1.3
				c0.1-0.1,0.1-0.3,0.1-0.4l95.2,8.5l29.2,2.6c0,0.4,0.1,0.7,0.3,1l-94.6,74.7C536.3,185.4,536.1,185.3,535.8,185.2z M603.6-11.6
				L487,11.1l-5,1c0-0.1-0.1-0.2-0.1-0.3l20.6-17.4c0.1,0,0.1,0.1,0.2,0.1c1.5,0.7,3.3,0,4-1.5c0.3-0.7,0.3-1.5,0.1-2.2l36.4-30.8
				c0.2,0.1,0.4,0.3,0.6,0.4c1.3,0.6,2.8,0.2,3.6-0.9l56.3,28.2C603.6-12.2,603.6-11.9,603.6-11.6z M542.4-41L513-16.1l-6.9,5.8
				c-0.3-0.3-0.6-0.6-1-0.7c-1-0.4-2.1-0.3-2.9,0.2l-38.3-45.3c0.1-0.2,0.3-0.4,0.4-0.6c0,0,0-0.1,0-0.1L542-42.4
				C542-41.9,542.2-41.4,542.4-41z M460.3-55.2c0.1,0,0.1,0,0.2,0.1l-3.4,19.9l-4.2-14c1.1-0.6,1.8-1.8,1.7-3l4.9-3.5
				C459.8-55.5,460-55.3,460.3-55.2z M448.5-50.8c0.2,0.4,0.4,0.7,0.7,1l-39.7,28.2c-0.2-0.2-0.5-0.4-0.8-0.6c-1.5-0.7-3.3,0-4,1.5
				c-0.7,1.5,0,3.3,1.5,4c0.4,0.2,0.8,0.3,1.2,0.3l8,42.3l-4.9,10.7c-0.6-0.1-1.3-0.1-1.9,0.1c-0.1,0.1-0.3,0.1-0.4,0.2L320.7-62
				c0.2-0.3,0.4-0.6,0.5-1l127.1,11.3C448.3-51.4,448.4-51.1,448.5-50.8z M253.2,51.2l110.8,70.2c0,0.1-0.1,0.2-0.1,0.3l-28.5-1.6
				c0-0.1,0-0.1-0.1-0.2c-0.7-1.6-2.5-2.4-4.2-1.8c-0.8,0.3-1.4,0.9-1.7,1.6l-50.5-2.8c0-0.3-0.1-0.5-0.2-0.7
				c-0.6-1.4-2-2.2-3.4-1.9l-22.8-62.6C252.8,51.6,253,51.4,253.2,51.2z M279,118.3l50.2,2.8c0,0.4,0.1,0.9,0.2,1.3
				c0.4,1.1,1.4,1.7,2.4,1.9l-3.5,62.7c-0.3,0-0.5,0.1-0.7,0.2c0,0-0.1,0-0.1,0.1l-49.2-67.6C278.6,119.3,278.8,118.8,279,118.3z
				 M333.1,124.3c0.2,0,0.3-0.1,0.5-0.1c1.2-0.5,1.9-1.5,2-2.7l28.3,1.6c0,0.3,0.1,0.5,0.2,0.7c0.5,1.2,1.6,2,2.9,2l4.9,28.1
				c0,0,0,0,0,0c-1.6,0.7-2.4,2.5-1.8,4.2c0,0.1,0.1,0.1,0.1,0.2l-39.2,29.6c-0.4-0.3-0.8-0.6-1.3-0.7L333.1,124.3z M331.8,188.9
				c0-0.1-0.1-0.1-0.1-0.2l39.2-29.6c0.8,0.7,2,1,3.2,0.6l8.5,14.4l13.8,23.3c-0.4,0.4-0.7,0.8-0.9,1.3L332,190
				C332,189.6,331.9,189.3,331.8,188.9z M399.6,196.9c-0.7-0.3-1.5-0.3-2.2,0l-22.3-37.7c1-0.9,1.3-2.3,0.8-3.6
				c-0.5-1.2-1.6-2-2.9-2l-4.9-28.1c0,0,0,0,0,0c0.7-0.3,1.3-0.8,1.6-1.4l61.8,18.8c0,0.5,0,1,0.2,1.5c0.2,0.4,0.4,0.8,0.7,1.1
				L399.6,196.9z M435.7,140.1c-0.3-0.1-0.6-0.1-1-0.1l-23.5-97.5c0.8-0.4,1.4-1,1.7-1.8l4,0.6c-0.1,0.2-0.2,0.3-0.3,0.5
				c-0.7,1.5,0,3.3,1.5,4c0.5,0.2,1,0.3,1.5,0.2l23.5,79.5L435.7,140.1z M444.4,125.8l25.1-49.4l31.4,20.4c-0.3,0.8-0.3,1.6,0,2.3
				l-3.4,2.4l-48.1,34c-0.2-0.2-0.5-0.4-0.8-0.6c-0.5-0.2-1-0.3-1.5-0.2L444.4,125.8z M632.6,106.8c-0.5,0.2-0.9,0.5-1.2,1
				l-92.5-43.2c0.2-0.9,0-1.8-0.5-2.5L605-9.1c0.1,0.1,0.2,0.1,0.3,0.2c0.4,0.2,0.9,0.3,1.3,0.3L632.6,106.8z M317.1-60.9
				c0.5,0.2,1.1,0.2,1.6,0.1l39.7,100.4c-0.8,0.5-1.3,1.3-1.4,2.2l-103,6.3c0-0.1-0.1-0.3-0.1-0.4c-0.2-0.5-0.5-0.8-0.8-1.2
				L317.1-60.9z"/>
			<path class="st2" d="M533.1,448.4c1.6-0.7,2.4-2.5,1.8-4.2c-0.2-0.4-0.4-0.8-0.7-1.1l33-51.4c0.7,0.3,1.6,0.3,2.4,0
				c1.6-0.7,2.4-2.5,1.8-4.2c-0.2-0.5-0.6-1-1-1.3l6.8-13.4l2.3,7.7c-0.6,0.3-1.1,0.8-1.3,1.4c-0.7,1.5,0,3.3,1.5,4
				c1.2,0.6,2.7,0.2,3.5-0.8l82.2,47.3c-0.5,1.4,0.2,3.1,1.6,3.7c1.5,0.7,3.3,0,4-1.5c0.4-0.9,0.3-1.8-0.1-2.6l94.6-74.7
				c0.2,0.2,0.4,0.3,0.7,0.5c1.5,0.7,3.3,0,4-1.5c0.7-1.5,0-3.3-1.5-4c-0.4-0.2-0.9-0.3-1.3-0.3l-25.9-115.4
				c0.6-0.3,1.2-0.8,1.5-1.5c0.7-1.5,0-3.3-1.5-4c-1.3-0.6-2.8-0.2-3.6,0.9l-56.3-28.2c0.4-1.4-0.3-2.9-1.7-3.5
				c-1.5-0.7-3.3,0-4,1.5c0,0,0,0.1,0,0.1L598,187.5c0-1.1-0.7-2.2-1.8-2.7c-1.5-0.7-3.3,0-4,1.5c-0.4,0.8-0.3,1.7,0,2.5l-4.5,3.2
				c-0.7-1.5-2.5-2.1-4-1.5c-0.9,0.4-1.6,1.2-1.8,2.1l-127.1-11.3c0-0.3-0.1-0.6-0.2-0.9c-0.7-1.6-2.5-2.4-4.2-1.8
				c-1.6,0.7-2.4,2.5-1.8,4.2c0.2,0.5,0.5,0.8,0.8,1.2l-64,107.6c-0.7-0.2-1.5-0.3-2.3,0c-1.6,0.7-2.4,2.5-1.8,4.2
				c0.6,1.4,2,2.2,3.4,1.9l22.8,62.6c-1.3,0.8-1.9,2.4-1.3,3.9c0.7,1.6,2.5,2.4,4.2,1.8c0,0,0.1,0,0.1-0.1l49.2,67.6
				c-0.8,0.9-1.1,2.2-0.6,3.4c0.7,1.6,2.5,2.4,4.2,1.8c0.9-0.4,1.5-1.1,1.8-1.9l63.5,8.9c0,0.3,0.1,0.7,0.2,1
				C529.6,448.2,531.5,449,533.1,448.4z M595.1,190.6c0.5,0,0.9-0.1,1.4-0.4l38.4,45.4c-0.1,0.1-0.2,0.3-0.2,0.4
				c-0.5,1.1-0.3,2.3,0.4,3.1l-20.4,17.3c-0.2-0.1-0.4-0.3-0.6-0.4c-1.1-0.5-2.4-0.3-3.3,0.5l-8-5.9l-11.3-37.8L595.1,190.6z
				 M610,257.5C609.9,257.5,609.9,257.5,610,257.5c-0.3,0.7-0.4,1.4-0.2,2.1l-3.8,1.9l-2.7-9L610,257.5z M666.9,307.9
				c-0.1,0.1-0.1,0.2-0.2,0.3c-0.5,1-0.3,2.1,0.3,3l-28.3,29.8c-0.1-0.1-0.2-0.1-0.3-0.2c-1.2-0.5-2.5-0.2-3.4,0.6l-31.5-20.5
				l11.3-22.2c0.7,0.2,1.4,0.2,2.1-0.1c1.6-0.7,2.4-2.5,1.8-4.2c-0.5-1.3-1.9-2.1-3.3-2l-8.9-29.8l4-2c0.3,0.4,0.7,0.7,1.1,0.9
				c1,0.5,2.2,0.3,3.1-0.3l32.5,29L666.9,307.9z M605.2,263.2l8.9,29.6c-0.7,0.4-1.2,1-1.5,1.7l-54.6-7.8l9.5-4.7L605.2,263.2z
				 M604.8,262l-15.2,7.6l-33.7,16.8l-1.4-0.2c-0.2-0.1-0.3-0.2-0.5-0.3c-0.4-0.2-0.8-0.3-1.2-0.3l-2.6-14l17-37.4l16.2,4.6
				c-0.1,1.2,0.6,2.4,1.7,3c1.1,0.5,2.4,0.3,3.3-0.5l13.2,9.9L604.8,262z M546.2,284c-0.2-0.6-0.6-1-1.1-1.4l4.1-9.1l2.3,12.2
				l-5.1-0.7C546.4,284.7,546.4,284.3,546.2,284z M540.7,283.3c-0.3,0.4-0.5,0.9-0.6,1.5l-43.5,2.3c0-0.1-0.1-0.3-0.1-0.4
				c-0.6-1.4-2.1-2.2-3.5-1.9l-39.6-100L540.7,283.3z M494.5,290.9c0.1,0,0.2,0,0.3-0.1c1.1-0.4,1.8-1.4,1.9-2.5l43.5-2.3
				c0,0.1,0.1,0.3,0.1,0.4c0.5,1.3,1.8,2,3.1,2l23.5,97.5c-0.6,0.3-1.1,0.8-1.5,1.4l-61.8-18.8c0-0.5,0-1-0.2-1.5
				c-0.5-1.1-1.5-1.8-2.6-2l-4.2-48.7L494.5,290.9z M555.5,289.7c0.2-0.6,0.3-1.3,0.1-1.9l0.3-0.2l56.4,8.1c0,0.3,0.1,0.7,0.2,1
				c0.2,0.5,0.6,1,1,1.3l-11.2,22.1l-13.2-8.6L555.5,289.7z M764,354.1l-123.9-11c-0.1-0.5-0.2-1-0.5-1.4l28.3-29.8
				c0.1,0.1,0.2,0.1,0.3,0.2c1.3,0.6,2.9,0.2,3.7-1l5,2.3L764,354.1z M737.3,235c0.1,0.2,0.2,0.4,0.3,0.6L671,306.8
				c-0.1-0.1-0.2-0.1-0.3-0.2c-1-0.5-2.2-0.3-3.1,0.3l-23.2-20.6l-29.2-26c0.1-0.1,0.1-0.2,0.2-0.3c0.2-0.4,0.3-0.8,0.3-1.2
				l18.5-3.6L737.3,235z M601,249.3l-12-8.9c0,0,0,0,0,0c0.7-1.5,0-3.3-1.5-4c-0.1,0-0.1,0-0.2-0.1l3.5-20.7L601,249.3z
				 M586.2,236.1c-1.1,0-2.1,0.6-2.6,1.6l-16.1-4.6l16.6-36.5c0.3,0.1,0.7,0.1,1,0.1l4.9,16.4L586.2,236.1z M566.4,232.8l-22.5-6.4
				c0-0.5,0-1-0.3-1.5l38.9-27.7L566.4,232.8z M543.6,227.5l22.3,6.4L554.5,259l-4.8,10.5l-7.7-40.6
				C542.7,228.6,543.2,228.1,543.6,227.5z M387.5,295l103-6.3c0,0.1,0.1,0.3,0.1,0.4c0.5,1.1,1.5,1.8,2.6,2l1.1,13l5.2,61
				c-0.1,0-0.2,0-0.3,0.1c-0.4,0.2-0.8,0.4-1.1,0.8l-110.8-70.2C387.4,295.5,387.5,295.2,387.5,295z M554.9,290.7l21.5,14l25.4,16.5
				l-24.5,48.3l-23.2-78.3C554.4,291.1,554.7,290.9,554.9,290.7z M583.5,382l51.5-36.4c0.2,0.2,0.5,0.4,0.8,0.6
				c0.5,0.2,1.1,0.3,1.6,0.2l16.7,48.6l12.3,35.8c-0.3,0.2-0.5,0.4-0.7,0.6l-82.2-47.3C583.8,383.4,583.8,382.7,583.5,382z
				 M669.3,430.7c-0.5-0.2-1.1-0.3-1.6-0.2l-2.4-7L638.6,346c0.5-0.3,1-0.8,1.2-1.3c0.1-0.1,0.1-0.3,0.1-0.4l95.2,8.5l29.2,2.6
				c0,0.4,0.1,0.7,0.3,1L670,431.1C669.8,430.9,669.5,430.8,669.3,430.7z M737.1,233.9l-116.6,22.8l-5,1c0-0.1-0.1-0.2-0.1-0.3
				l20.6-17.4c0.1,0,0.1,0.1,0.2,0.1c1.5,0.7,3.3,0,4-1.5c0.3-0.7,0.3-1.5,0.1-2.2l36.4-30.8c0.2,0.1,0.4,0.3,0.6,0.4
				c1.3,0.6,2.8,0.2,3.6-0.9l56.3,28.2C737.1,233.4,737.1,233.6,737.1,233.9z M675.9,204.5l-29.4,24.9l-6.9,5.8
				c-0.3-0.3-0.6-0.6-1-0.7c-1-0.4-2.1-0.3-2.9,0.2l-38.3-45.3c0.1-0.2,0.3-0.4,0.4-0.6c0,0,0-0.1,0-0.1l77.7,14.4
				C675.5,203.6,675.6,204.1,675.9,204.5z M593.8,190.3c0.1,0,0.1,0,0.2,0.1l-3.4,19.9l-4.2-14c1.1-0.6,1.8-1.8,1.7-3l4.9-3.5
				C593.2,190,593.5,190.2,593.8,190.3z M582,194.7c0.2,0.4,0.4,0.7,0.7,1L543,223.9c-0.2-0.2-0.5-0.4-0.8-0.6c-1.5-0.7-3.3,0-4,1.5
				c-0.7,1.5,0,3.3,1.5,4c0.4,0.2,0.8,0.3,1.2,0.3l8,42.3l-4.9,10.7c-0.6-0.1-1.3-0.1-1.9,0.1c-0.1,0.1-0.3,0.1-0.4,0.2l-87.6-98.9
				c0.2-0.3,0.4-0.6,0.5-1l127.1,11.3C581.8,194.1,581.8,194.4,582,194.7z M386.7,296.7l110.8,70.2c0,0.1-0.1,0.2-0.1,0.3l-28.5-1.6
				c0-0.1,0-0.1-0.1-0.2c-0.7-1.6-2.5-2.4-4.2-1.8c-0.8,0.3-1.4,0.9-1.7,1.6l-50.5-2.8c0-0.3-0.1-0.5-0.2-0.7
				c-0.6-1.4-2-2.2-3.4-1.9L386,297.3C386.3,297.1,386.5,296.9,386.7,296.7z M412.4,363.8l50.2,2.8c0,0.4,0.1,0.9,0.2,1.3
				c0.4,1.1,1.4,1.7,2.4,1.9l-3.5,62.7c-0.3,0-0.5,0.1-0.7,0.2c0,0-0.1,0-0.1,0.1l-49.2-67.6C412,364.8,412.3,364.3,412.4,363.8z
				 M466.6,369.8c0.2,0,0.3-0.1,0.5-0.1c1.2-0.5,1.9-1.5,2-2.7l28.3,1.6c0,0.3,0.1,0.5,0.2,0.7c0.5,1.2,1.6,2,2.9,2l4.9,28.1
				c0,0,0,0,0,0c-1.6,0.7-2.4,2.5-1.8,4.2c0,0.1,0.1,0.1,0.1,0.2l-39.2,29.6c-0.4-0.3-0.8-0.6-1.3-0.7L466.6,369.8z M465.2,434.5
				c0-0.1-0.1-0.1-0.1-0.2l39.2-29.6c0.8,0.7,2,1,3.2,0.6l8.5,14.4l13.8,23.3c-0.4,0.4-0.7,0.8-0.9,1.3l-63.5-8.9
				C465.4,435.1,465.4,434.8,465.2,434.5z M533.1,442.4c-0.7-0.3-1.5-0.3-2.2,0l-22.3-37.7c1-0.9,1.3-2.3,0.8-3.6
				c-0.5-1.2-1.6-2-2.9-2l-4.9-28.1c0,0,0,0,0,0c0.7-0.3,1.3-0.8,1.6-1.4l61.8,18.8c0,0.5,0,1,0.2,1.5c0.2,0.4,0.4,0.8,0.7,1.1
				L533.1,442.4z M569.1,385.7c-0.3-0.1-0.6-0.1-1-0.1l-23.5-97.5c0.8-0.4,1.4-1,1.7-1.8l4,0.6c-0.1,0.2-0.2,0.3-0.3,0.5
				c-0.7,1.5,0,3.3,1.5,4c0.5,0.2,1,0.3,1.5,0.2l23.5,79.5L569.1,385.7z M577.8,371.3l25.1-49.4l31.4,20.4c-0.3,0.8-0.3,1.6,0,2.3
				L631,347l-48.1,34c-0.2-0.2-0.5-0.4-0.8-0.6c-0.5-0.2-1-0.3-1.5-0.2L577.8,371.3z M766,352.3c-0.5,0.2-0.9,0.5-1.2,1l-92.5-43.2
				c0.2-0.9,0-1.8-0.5-2.5l66.6-71.2c0.1,0.1,0.2,0.1,0.3,0.2c0.4,0.2,0.9,0.3,1.3,0.3L766,352.3z M450.5,184.6
				c0.5,0.2,1.1,0.2,1.6,0.1l39.7,100.4c-0.8,0.5-1.3,1.3-1.4,2.2l-103,6.3c0-0.1-0.1-0.3-0.1-0.4c-0.2-0.5-0.5-0.8-0.8-1.2
				L450.5,184.6z"/>
			<path class="st2" d="M43.9,266.6l74-88.4l88.8-9.8c0.1,0.3,0.2,0.5,0.3,0.8c0.9,1.4,2.8,1.8,4.2,0.9c1.4-0.9,1.8-2.8,0.9-4.2
				c-0.3-0.4-0.6-0.7-1-0.9l39.5-112.5c0.7,0.1,1.5,0,2.1-0.5c1.4-0.9,1.8-2.8,0.9-4.2c-0.8-1.2-2.3-1.6-3.6-1.2L216.9-7.7
				c1.1-1,1.3-2.6,0.5-3.9c-0.9-1.4-2.8-1.8-4.2-0.9c0,0-0.1,0.1-0.1,0.1l-58.7-53.8c0.6-1,0.6-2.2-0.1-3.2
				c-0.9-1.4-2.8-1.8-4.2-0.9c-0.8,0.5-1.2,1.3-1.3,2.1l-60.9,3.7c-0.1-0.3-0.2-0.6-0.4-0.9c-0.9-1.4-2.8-1.8-4.2-0.9
				c-1.4,0.9-1.8,2.8-0.9,4.2c0.2,0.4,0.6,0.7,0.9,0.9L62.1-6.9c-0.7-0.1-1.5,0-2.2,0.5c-1.4,0.9-1.8,2.8-0.9,4.2
				c0.3,0.5,0.7,0.8,1.2,1l-16.3,59L9.2,48.5c0.1-1.4-0.8-2.7-2.3-3c-1.6-0.4-3.1,0.6-3.5,2.2c0,0,0,0.1,0,0.1l-76.3,1.6
				c-0.2-1.1-1.1-2-2.2-2.2c-1.6-0.4-3.1,0.6-3.5,2.2c-0.2,0.8,0,1.7,0.5,2.3l-39.8,42.9c-0.3-0.2-0.6-0.3-0.9-0.4
				c-1.6-0.4-3.1,0.6-3.5,2.2c-0.4,1.6,0.6,3.1,2.2,3.5c0.4,0.1,0.8,0.1,1.2,0l21.3,51.6c-0.6,0.4-1.1,1-1.2,1.8
				c-0.4,1.6,0.6,3.1,2.2,3.5c0.5,0.1,1,0.1,1.5-0.1l42.4,79c-0.5,0.4-0.8,0.9-1,1.6c-0.4,1.6,0.6,3.1,2.2,3.5
				c1.3,0.3,2.5-0.3,3.2-1.4L38.8,268c-0.2,1.5,0.8,2.9,2.2,3.2c1.6,0.4,3.1-0.6,3.5-2.2C44.7,268.1,44.5,267.2,43.9,266.6z
				 M-116.6,98l23,1.7l16.8,1.2c0.1,1.2,1,2.2,2.2,2.5c1.2,0.3,2.3-0.2,3-1.1l23.6,11c0,0,0,0,0,0c-0.2,0.7,0,1.4,0.3,2L-94,151.8
				c-0.3-0.3-0.8-0.5-1.2-0.6c-0.4-0.1-0.8-0.1-1.2,0l-21.3-51.6C-117.2,99.2-116.8,98.7-116.6,98z M-73.9,52.3l45.2,35.4
				c-0.1,0.1-0.1,0.3-0.2,0.4c-0.3,1.1,0.2,2.2,1,2.9l-15.9,20.4c-0.2-0.1-0.4-0.2-0.7-0.2c-1.2-0.3-2.3,0.2-3,1.1l-23.6-11
				c0,0,0,0,0,0c0.4-1.6-0.6-3.1-2.2-3.5c-0.1,0-0.1,0-0.2,0l-1.7-44.8C-74.6,52.8-74.2,52.6-73.9,52.3z M80.6,88.7l-24.4,1.4
				l13.4-22c0.1,0,0.2,0.1,0.3,0.1c0.4,0.1,0.9,0.1,1.3,0L80.6,88.7z M151.6-64.7l8.6,59.3c-0.1,0.1-0.3,0.1-0.4,0.2
				c-1,0.7-1.5,1.8-1.3,2.9l-26.7,3.9c-0.1-0.2-0.2-0.5-0.3-0.7c-0.7-1-1.9-1.5-3.1-1.3l-9.9-25.3c0,0,0,0,0,0
				c1.4-0.9,1.8-2.8,0.9-4.2c0-0.1-0.1-0.1-0.1-0.1l31-35C150.6-64.9,151.1-64.8,151.6-64.7z M212-8.9c0.1,0.2,0.2,0.5,0.3,0.7
				c0.8,1.2,2.3,1.6,3.6,1.2L249,47.1c-0.2,0.2-0.4,0.4-0.5,0.6L131.8,3.1c0-0.1,0-0.2,0-0.3l26.9-3.9c0,0.1,0.1,0.1,0.1,0.2
				c0.9,1.4,2.8,1.8,4.2,0.9c0.7-0.4,1.1-1.1,1.3-1.8l40.9-5.9L212-8.9z M118.5,172.3c-0.4,0.3-0.7,0.7-1,1.1L87,166.3l9.7-42
				L118.5,172.3z M81.1,89.9l14.8,32.6l-10,43.5l-12.1-2.9l-29-54.3l10.7-17.5l15.4-0.9L81.1,89.9z M64.5-3.1l25.1,2.4l36.2,3.5
				c0,0.5,0.2,0.9,0.5,1.4c0.6,1,1.7,1.4,2.8,1.3l16.7,57.1l3.2,10.8c-0.1,0-0.2,0.1-0.3,0.1c-0.9,0.6-1.4,1.7-1.3,2.7l-40.1,10.4
				c-0.1-0.1-0.1-0.2-0.2-0.4c-0.7-1.1-2-1.6-3.2-1.3L63.4-1.5C64-1.9,64.3-2.5,64.5-3.1z M107.2,89.3c0.2-0.5,0.3-1,0.3-1.5
				l22.9-5.9l17.3-4.5c0.1,0.1,0.1,0.2,0.2,0.4c0.8,1.2,2.3,1.7,3.7,1.1l55.8,85.9l-69.8-52.7L107.2,89.3z M248.1,48.8
				c0,0.2,0,0.5,0,0.7l-95,25.3c-0.1-0.1-0.1-0.2-0.2-0.3c-0.6-1-1.7-1.4-2.8-1.3L130.2,5.2c0.1,0,0.2-0.1,0.3-0.1
				c0.4-0.2,0.7-0.6,0.9-0.9l83.8,32L248.1,48.8z M101.9,89.7c0.3,0.5,0.8,0.9,1.3,1.1l-6.9,29.9l-14-30.8l19.2-1.1
				C101.6,89.1,101.7,89.4,101.9,89.7z M-93.3,152.7l24.3-19.1l22.1-17.4c0.3,0.3,0.8,0.5,1.2,0.6c1.1,0.2,2.1-0.2,2.8-0.9
				l58.8,33.9c0,0.1-0.1,0.2-0.1,0.3c-0.2,1,0.1,2.1,0.9,2.8l-7.5,12.1l-13.5,21.7c-0.1,0-0.2-0.1-0.4-0.1c-1.2-0.3-2.4,0.3-3.1,1.3
				l-85.3-33.2C-92.9,153.9-93.1,153.2-93.3,152.7z M37,94.3c0.6-0.5,1-1.2,1.1-1.9l16-0.9l-9.9,16.3L37,94.3z M85.6,167.1L83,178.4
				l0,0c-0.2,0-0.5,0-0.7,0.1l-0.2,0l-7.5-14.1L85.6,167.1z M84.2,178.3l2.5-10.9l30.1,7.1L84.2,178.3z M21.5,150.8
				c0-0.9-0.3-1.7-0.9-2.2l23.5-38.5l28.2,52.7L21.5,150.8z M68.6,67.5L54.8,90.2l-16.8,1c-0.1-0.3-0.2-0.6-0.4-0.9
				c-0.3-0.5-0.7-0.8-1.2-1l2.8-10l29-12.2C68.3,67.2,68.5,67.4,68.6,67.5z M35.3,88.9c-0.6,0-1.3,0.1-1.9,0.5
				c-1.4,0.9-1.8,2.8-0.9,4.2c0.8,1.1,2.2,1.6,3.4,1.2l7.5,14.1L19.6,148c-0.1,0-0.2-0.1-0.3-0.1c-1.1-0.2-2.1,0.2-2.8,0.9
				l-58.8-33.9c0-0.1,0.1-0.2,0.1-0.3c0.1-0.4,0.1-0.8,0-1.2l80-33.6L35.3,88.9z M-2.6,188.4c-0.2-0.5-0.4-0.9-0.8-1.2l3-4.8
				l17.9-28.9c0.1,0,0.2,0.1,0.4,0.1c1.4,0.3,2.7-0.4,3.3-1.6l51.7,12.2l7.8,14.6l-17.4,2L-2.6,188.4z M85.4,179.8
				c-0.1-0.2-0.2-0.3-0.4-0.4l32.3-3.8c0.1,0.3,0.3,0.6,0.5,0.9l-0.5,0.6l-31.6,3.5C85.7,180.3,85.6,180,85.4,179.8z M208.5,164.6
				l-56-86.3c0.6-0.6,1-1.5,0.9-2.4l95-25.3c0.1,0.1,0.1,0.2,0.2,0.3c0.3,0.4,0.6,0.7,1,0.9l-39.5,112.5
				C209.5,164.4,209,164.4,208.5,164.6z M86.4-61.1l27.9,31c-0.7,1-0.8,2.4-0.1,3.5c0.7,1,1.9,1.5,3.1,1.3L127.2,0c0,0,0,0,0,0
				c-0.6,0.4-1,1-1.2,1.7L64.6-4.3c0-0.5-0.2-0.9-0.5-1.4c-0.2-0.4-0.6-0.7-0.9-0.9l21.1-54.2C85.1-60.6,85.8-60.7,86.4-61.1z
				 M67.7,65.2c0,0.3,0,0.5,0,0.8L39.6,77.8l5.2-18.7L67.7,65.2z M-93.5,155.6l85.3,33.2c-0.1,0.8,0.1,1.6,0.5,2.2l-41.6,44.6
				c-0.3-0.2-0.6-0.3-0.9-0.4c-0.5-0.1-1-0.1-1.5,0.1l-42.4-79C-93.8,156.1-93.6,155.8-93.5,155.6z M-48.4,236.3l2-2.1l39.6-42.4
				c0.3,0.2,0.6,0.3,0.9,0.4c0.6,0.1,1.1,0.1,1.6-0.1l43.2,72.7l0.9,1.5c-0.2,0.2-0.4,0.5-0.6,0.7l-87.1-28.6
				C-47.8,237.6-48,236.9-48.4,236.3z M43.1,265.8c-0.2-0.1-0.5-0.2-0.7-0.3c-0.6-0.1-1.1-0.1-1.6,0.1l-44.1-74.2
				c0.4-0.4,0.8-0.9,0.9-1.5c0-0.1,0-0.3,0-0.4l82.7-9.6c-0.6,1-0.6,2.2,0.1,3.3c0.9,1.4,2.8,1.8,4.2,0.9c0.8-0.5,1.3-1.4,1.3-2.3
				l30.4-3.4L43.1,265.8z M122.4,176.5c0.3-0.3,0.5-0.7,0.6-1.2c0.4-1.6-0.6-3.1-2.2-3.5c-0.4-0.1-0.9-0.1-1.3,0l-22.4-49.4l5-21.7
				l2.3-9.8c0.6,0,1.2-0.1,1.8-0.5c0.1-0.1,0.2-0.2,0.3-0.3l100.4,75.9c-0.2,0.3-0.3,0.7-0.3,1L122.4,176.5z M212.3-11.5
				c-0.3,0.4-0.4,0.9-0.4,1.4l-16.8,2.4l-30.7,4.5c-0.1-0.4-0.2-0.8-0.5-1.2c-0.6-0.9-1.6-1.4-2.6-1.4l-8.6-59.2
				c0.2-0.1,0.5-0.2,0.7-0.3c0,0,0.1-0.1,0.1-0.1L212.3-11.5z M148.8-67c0.1,0.3,0.2,0.6,0.4,0.9c0,0.1,0.1,0.1,0.1,0.1l-31,35
				c-0.9-0.5-2.1-0.6-3.1,0l-27.9-31c0.3-0.4,0.5-0.9,0.6-1.4L148.8-67z M61.4-0.9c0.3,0,0.6,0,0.9-0.1l40.3,86.6
				c-0.7,0.5-1.1,1.2-1.2,2l-16.2,0.9l-3.5,0.2l-9.5-20.9c0.6-0.4,1-1,1.1-1.7c0.4-1.6-0.6-3.1-2.2-3.5c-1.3-0.3-2.7,0.4-3.3,1.6
				L45.1,58L61.4-0.9z M38.2,78.4l-80.8,34c-0.1-0.1-0.1-0.2-0.2-0.3l16.1-20.6c0.1,0,0.1,0,0.2,0.1c1.6,0.4,3.1-0.6,3.5-2.2
				c0.2-0.8,0-1.5-0.3-2.1l28.2-36L5,50.9c0.2,0.1,0.4,0.2,0.7,0.2c1.3,0.3,2.7-0.4,3.3-1.6l34.7,9.2L38.2,78.4z M3.4,49
				c0.1,0.5,0.3,0.9,0.6,1.3l-28.3,36.2c-0.3-0.2-0.7-0.4-1.1-0.5c-1-0.2-2,0.1-2.7,0.8l-45.1-35.3c0.1-0.2,0.2-0.4,0.2-0.7
				c0,0,0-0.1,0-0.1L3.4,49z M-77.3,52.6c0.3,0.2,0.6,0.3,0.9,0.4c0.1,0,0.1,0,0.2,0l1.7,44.8c-1,0.2-1.8,1-2.1,2l-12.1-0.9
				l-27.7-2.1c-0.1-0.5-0.2-0.9-0.5-1.3L-77.3,52.6z"/>
		</g>
	</g>
	<g class="st3">
		<circle class="st4" cx="113.1" cy="263.6" r="65.5"/>
		<circle class="st4" cx="21.5" cy="333.2" r="89.5"/>
		<circle class="st4" cx="555.3" cy="333.2" r="89.5"/>
		<circle class="st4" cx="150.9" cy="201.4" r="21"/>
		<circle class="st4" cx="192.9" cy="188.8" r="37"/>
		<circle class="st4" cx="246.1" cy="171.4" r="36.4"/>
		<circle class="st4" cx="319.8" cy="194.7" r="55.5"/>
		<circle class="st4" cx="379.5" cy="180.4" r="28.6"/>
		<circle class="st4" cx="421.5" cy="222.4" r="48.9"/>
		<circle class="st4" cx="485.3" cy="263.6" r="51.2"/>
		<polygon class="st4" points="60.5,238.5 273.6,166.9 508.6,238.5 508.6,412.9 60.5,412.9 		"/>
		<polygon class="st2" points="265.2,164.2 286.2,108.2 304,164.2 		"/>
	</g>
	<g class="st3">
		<g>
			<polygon class="st5" points="301,191.5 315.5,220.3 316.6,194.5 			"/>
			<polygon class="st5" points="358.7,198.5 344.1,169.7 337.3,184.1 			"/>
			<polygon class="st5" points="317.1,183.4 317.1,183.4 321.7,181 			"/>
			<polygon class="st5" points="337.3,184.1 331,197.3 316.6,194.5 315.5,220.3 358.7,198.5 			"/>
			<polygon class="st5" points="331,197.3 337.3,184.1 344.1,169.7 321.7,181 317.1,183.4 301,191.5 316.6,194.5 			"/>
		</g>
		<g>
			<path class="st5" d="M292.7,287.4c0.1,2.6-1.9,4.8-4.5,4.9l-4.5,0.2c-2.6,0.1-4.8-1.9-4.9-4.5l-1.1-22.8
				c-0.1-2.6,1.9-4.8,4.5-4.9l4.5-0.2c2.6-0.1,4.8,1.9,4.9,4.5L292.7,287.4z"/>
			<path class="st5" d="M328,262.7c-0.1-2.4-2.1-4.2-4.5-4.1l-12.6,0.6l-0.5-9.9c-0.1-2.4-2.2-4.3-4.6-4.2c-2.4,0.1-4.3,2.2-4.2,4.6
				l0.3,5.4c0,2.5-2,4.6-4.6,4.7l0,0c-3.3,0.4-5.8,3.3-5.6,6.6l0.8,17c0.2,3.5,3.2,6.2,6.8,6l0.9,0l9.6-0.4l9.7-0.5
				c1.9-0.1,3.3-1.7,3.2-3.6c-0.1-1.2-0.7-2.2-1.7-2.8c2.1-0.2,3.6-2,3.5-4.1c-0.1-1.5-0.9-2.7-2.1-3.3c2.2-0.3,3.8-2.2,3.7-4.4
				c-0.1-1.3-0.7-2.5-1.7-3.2C326.6,266.7,328.1,264.8,328,262.7z"/>
			
				<ellipse transform="matrix(0.9989 -4.638598e-02 4.638598e-02 0.9989 -12.1444 13.5032)" class="st5" cx="284.9" cy="268.4" rx="2.5" ry="2.5"/>
		</g>
		<g>
			<g>
				<g>
					<g>
						<path class="st5" d="M239,203c-1.1,1.4-1.9,2.9-2.4,4.5c-2,0.4-4.2,1.7-4.4,3.3c-0.2,1.6,1.7,3.3,3.6,4.1
							c0.2,1.7,0.7,3.3,1.5,4.9c-1.1,1.8-1.8,4.2-0.8,5.4c1,1.3,3.5,1.1,5.5,0.3c1.4,1.1,2.9,1.9,4.5,2.4c0.4,2,1.7,4.2,3.3,4.4
							c1.6,0.2,3.3-1.7,4.1-3.6c1.7-0.2,3.4-0.7,4.9-1.5c1.8,1.1,4.2,1.8,5.4,0.8c1.3-1,1.1-3.5,0.3-5.5c1.1-1.4,1.9-2.9,2.4-4.5
							c2-0.4,4.2-1.6,4.4-3.3c0.2-1.6-1.7-3.3-3.6-4.1c-0.2-1.7-0.7-3.3-1.5-4.9c1.1-1.8,1.8-4.2,0.8-5.4c-1-1.3-3.5-1.1-5.5-0.3
							c-1.4-1.1-2.9-1.9-4.5-2.4c-0.4-2-1.7-4.2-3.3-4.4c-1.6-0.2-3.3,1.7-4.1,3.6c-1.7,0.2-3.3,0.7-4.9,1.5
							c-1.8-1.1-4.2-1.8-5.4-0.8C238.1,198.6,238.3,201.1,239,203z M260.4,205.9c3.8,4.7,3.1,11.6-1.6,15.5
							c-4.7,3.8-11.6,3.1-15.5-1.6c-3.8-4.7-3.1-11.6,1.6-15.5C249.6,200.5,256.5,201.2,260.4,205.9z"/>
						
							<ellipse transform="matrix(0.7754 -0.6314 0.6314 0.7754 -77.8657 206.8084)" class="st5" cx="251.8" cy="212.9" rx="4.6" ry="4.6"/>
					</g>
				</g>
				<g>
					<g>
						<path class="st5" d="M239.5,168.3c-0.8,1.1-1.5,2.3-1.9,3.6c-1.6,0.3-3.3,1.3-3.5,2.6c-0.1,1.3,1.4,2.6,2.9,3.2
							c0.2,1.3,0.6,2.6,1.2,3.9c-0.9,1.4-1.4,3.3-0.6,4.3c0.8,1,2.8,0.9,4.3,0.3c1.1,0.8,2.3,1.5,3.6,1.9c0.3,1.6,1.3,3.3,2.6,3.5
							c1.3,0.1,2.6-1.4,3.2-2.9c1.3-0.2,2.6-0.6,3.9-1.2c1.4,0.9,3.3,1.4,4.3,0.6c1-0.8,0.9-2.8,0.3-4.3c0.8-1.1,1.5-2.3,1.9-3.6
							c1.6-0.3,3.3-1.3,3.5-2.6c0.1-1.3-1.4-2.6-2.9-3.2c-0.2-1.3-0.6-2.6-1.2-3.9c0.9-1.4,1.4-3.3,0.6-4.3c-0.8-1-2.8-0.9-4.3-0.3
							c-1.1-0.8-2.3-1.5-3.6-1.9c-0.3-1.6-1.3-3.3-2.6-3.5c-1.3-0.1-2.6,1.4-3.2,2.9c-1.3,0.2-2.6,0.6-3.9,1.2
							c-1.4-0.9-3.3-1.4-4.3-0.6C238.7,164.8,238.9,166.8,239.5,168.3z M256.2,170.6c3,3.7,2.5,9.1-1.2,12.1
							c-3.7,3-9.1,2.5-12.1-1.2c-3-3.7-2.5-9.1,1.2-12.1C247.8,166.3,253.2,166.9,256.2,170.6z"/>
						
							<ellipse transform="matrix(0.7755 -0.6313 0.6313 0.7755 -55.1263 197.0512)" class="st5" cx="249.5" cy="176" rx="3.6" ry="3.6"/>
					</g>
				</g>
				<g>
					<g>
						<path class="st5" d="M210.4,187.3c-0.7,1.2-1.1,2.5-1.4,3.8c-1.5,0.6-3.1,1.8-3.1,3c0.1,1.3,1.7,2.3,3.3,2.8
							c0.4,1.3,0.9,2.5,1.7,3.7c-0.7,1.5-1,3.4,0,4.3c1,0.9,2.9,0.5,4.3-0.3c1.2,0.7,2.5,1.1,3.8,1.4c0.6,1.5,1.8,3.1,3.1,3.1
							c1.3-0.1,2.3-1.7,2.8-3.3c1.3-0.4,2.5-0.9,3.7-1.7c1.5,0.7,3.4,1,4.3,0c0.9-1,0.5-2.9-0.3-4.3c0.7-1.2,1.1-2.5,1.4-3.8
							c1.5-0.6,3.1-1.8,3.1-3c-0.1-1.3-1.7-2.3-3.3-2.8c-0.4-1.3-0.9-2.5-1.7-3.7c0.7-1.5,1-3.4,0-4.3c-1-0.9-2.9-0.5-4.3,0.3
							c-1.2-0.7-2.5-1.1-3.8-1.4c-0.6-1.5-1.8-3.1-3-3.1c-1.3,0.1-2.3,1.7-2.8,3.3c-1.3,0.4-2.5,0.9-3.7,1.7c-1.5-0.7-3.4-1-4.3,0
							C209.2,183.9,209.6,185.8,210.4,187.3z M227.3,187.1c3.5,3.2,3.7,8.7,0.5,12.2c-3.2,3.5-8.7,3.7-12.2,0.5
							c-3.5-3.2-3.7-8.7-0.5-12.2C218.4,184.1,223.8,183.9,227.3,187.1z"/>
						
							<ellipse transform="matrix(0.6782 -0.7349 0.7349 0.6782 -70.9193 225.0285)" class="st5" cx="221.5" cy="193.5" rx="3.6" ry="3.6"/>
					</g>
				</g>
			</g>
		</g>
		<g>
			<g>
				<rect x="155.6" y="257.9" class="st5" width="68.1" height="40.5"/>
				<g>
					<rect x="155.6" y="243" class="st5" width="68.1" height="14.9"/>
				</g>
			</g>
			<g>
				<line class="st5" x1="166.1" y1="268.6" x2="213.2" y2="268.6"/>
				<line class="st5" x1="166.1" y1="275.1" x2="213.2" y2="275.1"/>
				<line class="st5" x1="166.1" y1="281.5" x2="213.2" y2="281.5"/>
				<line class="st5" x1="166.1" y1="288" x2="213.2" y2="288"/>
			</g>
			<g>
				<line class="st5" x1="218.6" y1="247.9" x2="214.1" y2="252.3"/>
				<line class="st5" x1="214.1" y1="247.9" x2="218.6" y2="252.3"/>
			</g>
		</g>
		<g>
			<g>
				
					<rect x="464.4" y="334.9" transform="matrix(0.3991 -0.9169 0.9169 0.3991 -47.0087 666.1)" class="st5" width="40.5" height="68.1"/>
				<g>
					
						<rect x="466.2" y="360.3" transform="matrix(0.3991 -0.9169 0.9169 0.3991 -76.9285 671.2244)" class="st5" width="14.9" height="68.1"/>
				</g>
			</g>
			<g>
				<line class="st5" x1="502.5" y1="387" x2="459.3" y2="368.2"/>
				<line class="st5" x1="505.1" y1="381.1" x2="461.8" y2="362.3"/>
				<line class="st5" x1="507.7" y1="375.2" x2="464.4" y2="356.4"/>
				<line class="st5" x1="510.2" y1="369.3" x2="467" y2="350.5"/>
			</g>
			<g>
				<line class="st5" x1="446.1" y1="385.1" x2="451.9" y2="382.8"/>
				<line class="st5" x1="450.2" y1="386.9" x2="447.8" y2="381"/>
			</g>
		</g>
		<g>
			<line class="st5" x1="181.2" y1="194.4" x2="181.2" y2="180.7"/>
			<line class="st5" x1="174.3" y1="187.5" x2="188" y2="187.5"/>
		</g>
		<g>
			<line class="st5" x1="127" y1="229.5" x2="127" y2="215.8"/>
			<line class="st5" x1="120.2" y1="222.7" x2="133.9" y2="222.7"/>
		</g>
		<g>
			<line class="st5" x1="66.1" y1="294.5" x2="66.1" y2="280.8"/>
			<line class="st5" x1="59.2" y1="287.6" x2="72.9" y2="287.6"/>
		</g>
		<g>
			<line class="st5" x1="244.2" y1="258.9" x2="244.4" y2="245.2"/>
			<line class="st5" x1="237.5" y1="251.9" x2="251.2" y2="252.1"/>
		</g>
		<g>
			<line class="st5" x1="20" y1="341.7" x2="20" y2="329.8"/>
			<line class="st5" x1="14" y1="335.7" x2="25.9" y2="335.7"/>
		</g>
		<g>
			<line class="st5" x1="286.6" y1="181" x2="286.6" y2="167.3"/>
			<line class="st5" x1="279.7" y1="174.1" x2="293.4" y2="174.1"/>
		</g>
		<g>
			<line class="st5" x1="511.7" y1="265.7" x2="511.7" y2="252"/>
			<line class="st5" x1="504.9" y1="258.9" x2="518.6" y2="258.9"/>
		</g>
		<g>
			<line class="st5" x1="250.6" y1="376.1" x2="250.6" y2="362.4"/>
			<line class="st5" x1="243.8" y1="369.2" x2="257.4" y2="369.2"/>
		</g>
		<g>
			<line class="st5" x1="372.5" y1="192.4" x2="372.5" y2="178.8"/>
			<line class="st5" x1="365.6" y1="185.6" x2="379.3" y2="185.6"/>
		</g>
		<g>
			<line class="st5" x1="436.4" y1="342.2" x2="436.4" y2="328.5"/>
			<line class="st5" x1="429.6" y1="335.4" x2="443.3" y2="335.4"/>
		</g>
		<g>
			<line class="st5" x1="451.6" y1="229.2" x2="451.6" y2="215.5"/>
			<line class="st5" x1="444.7" y1="222.3" x2="458.4" y2="222.3"/>
		</g>
		<g>
			<path class="st5" d="M369.9,251.7c4.3,5.3,5.7,26.6,5.7,26.6s-20.6-5.6-24.9-10.9c-4.3-5.3-3.5-13.1,1.8-17.4
				C357.8,245.6,365.6,246.4,369.9,251.7z"/>
			
				<ellipse transform="matrix(0.7752 -0.6318 0.6318 0.7752 -82.9476 285.9931)" class="st5" cx="360.3" cy="259.5" rx="5.7" ry="5.7"/>
		</g>
		<g>
			<g>
				<g>
					<path class="st5" d="M264.2,315.6c1.4-3.4,3.7-9.6,0.6-12.8c-4.4-4.4-9.4,2-11.4,5.5c-0.4,0.7-0.8,1.4-1.1,2.1"/>
				</g>
				<g>
					<g>
						
							<rect x="241.3" y="315.3" transform="matrix(0.3834 -0.9236 0.9236 0.3834 -147.4792 444.0548)" class="st5" width="34.9" height="34.3"/>
					</g>
					<g>
						
							<rect x="222.1" y="320.8" transform="matrix(0.3834 -0.9236 0.9236 0.3834 -151.9709 421.3382)" class="st5" width="34.9" height="7.4"/>
					</g>
				</g>
				<g>
					<path class="st5" d="M268.4,322.2c0,0,7.9-14.9,0.8-17.9c-7-2.9-12.8,12.9-12.8,12.9"/>
				</g>
			</g>
		</g>
		<g>
			<path class="st5" d="M423.3,213.2c-0.4-4.9-4.6-8.7-9.6-8.7c-1.9,0-3.6,0.6-5.1,1.5c-3-4.6-8.2-7.7-14.1-7.7
				c-8.9,0-16.3,7.1-16.7,15.9c-4.2,1.9-7.2,6.2-7.2,11.1c0,6.7,5.4,12.2,12.2,12.2h38.4c6.7,0,12.2-5.4,12.2-12.2
				C433.4,219.2,429,214.2,423.3,213.2z"/>
			<g>
				<polygon class="st5" points="410.2,225 402.1,211 393.9,225 399.1,225 399.1,229.5 405,229.5 405,225 				"/>
			</g>
		</g>
		<g>
			<g>
				<path class="st5" d="M458,309.5c-5.4-2.5-10.6-3.2-8.2-7.1c2.4-3.9,4-4.1,3.8-10c-0.2-5.9-6.2-6.3-6.2-6.3s-6-0.4-7,5.4
					c-1,5.8,0.5,6.2,2.4,10.4c1.9,4.2-3.4,4.1-9.1,5.9c-5.7,1.8-3.9,6.9-3.9,6.9l14.5,1l1,0.1l15.5,1
					C460.9,316.8,463.4,312,458,309.5z"/>
				<path class="st5" d="M434,307.4c-1.8-0.8-2.3-0.8-1.3-2.5c1.8-2.9,3-3,2.8-7.4c-0.2-4.4-4.6-4.7-4.6-4.7s-4.4-0.3-5.2,4
					c-0.7,4.3,0.4,4.6,1.8,7.7c1.4,3.1-2.5,3-6.7,4.4c-4.2,1.3-2.9,5.1-2.9,5.1l11.9,0.8"/>
				<path class="st5" d="M412,309.1c-3.4-1.6-6.7-2-5.2-4.5c1.5-2.4,2.5-2.6,2.4-6.3c-0.1-3.7-3.9-4-3.9-4s-3.8-0.3-4.4,3.4
					c-0.6,3.7,0.3,3.9,1.5,6.6c1.2,2.6-2.1,2.6-5.7,3.7c-3.6,1.1-2.4,4.3-2.4,4.3l9.2,0.6l0.6,0l9.8,0.7
					C413.8,313.7,415.4,310.7,412,309.1z"/>
			</g>
			<path class="st5" d="M435.4,259.4l-32.9-2.2c-3.1-0.2-5.7,2.1-5.9,5.2l-0.7,11.1c-0.2,3.1,2.1,5.7,5.2,5.9l12.9,0.9l3.2,8.4
				l4.2-7.9l12.6,0.8c3.1,0.2,5.7-2.1,5.9-5.2l0.7-11.1C440.7,262.3,438.4,259.6,435.4,259.4z"/>
			<g>
				<g>
					<g>
						
							<ellipse transform="matrix(6.669315e-02 -0.9978 0.9978 6.669315e-02 114.9624 662.1755)" class="st5" cx="411.4" cy="269.6" rx="1.7" ry="1.7"/>
					</g>
					<g>
						
							<ellipse transform="matrix(6.673711e-02 -0.9978 0.9978 6.673711e-02 120.7154 669.2217)" class="st5" cx="418.1" cy="270.1" rx="1.7" ry="1.7"/>
					</g>
					<g>
						
							<ellipse transform="matrix(6.668748e-02 -0.9978 0.9978 6.668748e-02 126.506 676.296)" class="st5" cx="424.8" cy="270.5" rx="1.7" ry="1.7"/>
					</g>
				</g>
			</g>
		</g>
		<circle class="st5" cx="181.5" cy="216.5" r="4"/>
		<circle class="st5" cx="85.7" cy="246.7" r="4"/>
		<circle class="st5" cx="285.9" cy="360.7" r="4"/>
		<circle class="st5" cx="81" cy="369.2" r="4"/>
		<circle class="st5" cx="121.6" cy="338.1" r="4"/>
		<circle class="st5" cx="387.9" cy="291.2" r="4"/>
		<circle class="st5" cx="312.8" cy="169.6" r="4"/>
		<circle class="st5" cx="512.9" cy="335.9" r="4"/>
		<g>
			<polygon class="st5" points="353.1,306 369,309.4 364,294 360.5,297.8 343.7,282.5 339.7,286.8 356.6,302.1 			"/>
		</g>
		<g>
			<polygon class="st5" points="90.4,359.2 106.3,362.6 101.3,347.2 97.9,351 81,335.7 77.1,340 93.9,355.3 			"/>
		</g>
		<g>
			<polygon class="st5" points="217.2,367.1 221.1,351.3 205.5,355.9 209.2,359.4 193.5,375.9 197.8,380 213.5,363.5 			"/>
		</g>
		<path class="st5" d="M482.9,241.3h-13.1c-2.5,0-4.6,2-4.6,4.6v15c0,2.5,2,4.6,4.6,4.6h15c2.5,0,4.6-2,4.6-4.6v-15
			c0-1.1-0.4-2.1-1-2.9"/>
		<path class="st5" d="M485.9,265.2c-0.7,1.6-2.3,2.8-4.2,2.8h-15c-2.5,0-4.6-2-4.6-4.6v-15c0-2.1,1.4-3.9,3.4-4.4"/>
		<g>
			<g>
				<path class="st5" d="M477.7,258.3C477.8,258.3,477.8,258.3,477.7,258.3c0.9,0,1.6-0.5,2-1.2l9.8-17.6c0.6-1.1,0.2-2.5-0.9-3.1
					c-1.1-0.6-2.5-0.2-3.1,0.9l-7.9,14.2l-1.7-2.9c-0.6-1.1-2-1.4-3.1-0.8c-1.1,0.6-1.4,2-0.8,3.1l3.8,6.2
					C476.2,257.9,477,258.3,477.7,258.3z"/>
			</g>
		</g>
		<g>
			<path class="st5" d="M88.1,266.9v8.7c0,4.2,3.4,7.5,7.5,7.5h13.7l5.1,11l4.9-11h13.4c4.2,0,7.5-3.4,7.5-7.5v-15.1
				c0-4.1-3.4-7.5-7.5-7.5h-5.9"/>
			<path class="st5" d="M119.4,236.8H82.2c-4.2,0-7.5,3.4-7.5,7.5v15.1c0,4.2,3.4,7.5,7.5,7.5h13.7l5.1,11l4.9-11h13.4
				c4.2,0,7.5-3.4,7.5-7.5v-15.1C126.9,240.2,123.6,236.8,119.4,236.8z"/>
		</g>
		<path class="st5" d="M317.9,322c-4.7-8-13.8-6.4-11.8,2.7c1.6,7.2,11.8,13.3,11.8,13.3s10.2-6.1,11.8-13.3
			C331.7,315.7,322.6,314,317.9,322z"/>
		<path class="st5" d="M133.8,306.7c-3.3-5.6-9.6-4.4-8.2,1.9c1.1,5,8.2,9.2,8.2,9.2s7.1-4.2,8.2-9.2
			C143.3,302.3,137,301.2,133.8,306.7z"/>
		<path class="st5" d="M333.1,306.8l-31.4,0.2c-4.5,0-8.1,3.6-8.1,8.1l0.1,25.4c0,4.5,3.6,8.1,8.1,8.1l10.5-0.1l5.6,11.9l5.3-11.9
			l10.1-0.1c4.5,0,8.1-3.6,8.1-8.1l-0.1-25.4C341.2,310.4,337.5,306.8,333.1,306.8z"/>
		<g>
			<g>
				<path class="st6" d="M90.3,304.9l-2.1,0.7c-0.1,0-0.3,0.1-0.4,0.1c-0.4,0-0.7-0.3-0.7-0.7c0-0.4,0.2-0.6,0.6-0.7l2.4-0.9
					c0.3-0.1,0.6-0.2,0.9-0.2h0c0.5,0,0.8,0.4,0.8,0.8v13.5c0,0.5-0.4,0.9-0.8,0.9c-0.4,0-0.8-0.4-0.8-0.9V304.9z"/>
				<path class="st6" d="M95.4,316.7l5.1-4.5c2.3-2,3.1-3.2,3.1-4.7c0-1.7-1.4-2.9-3-2.9c-1.6,0-2.6,0.8-3.7,2.2
					c-0.1,0.2-0.3,0.3-0.6,0.3c-0.4,0-0.8-0.3-0.8-0.8c0-0.2,0.1-0.3,0.2-0.5c1.2-1.7,2.6-2.7,5-2.7c2.7,0,4.6,1.8,4.6,4.2v0
					c0,2.2-1.1,3.5-3.8,5.8l-4,3.5h7.2c0.4,0,0.8,0.3,0.8,0.8c0,0.4-0.4,0.8-0.8,0.8h-9c-0.5,0-0.9-0.3-0.9-0.8
					C95,317.1,95.1,316.9,95.4,316.7z"/>
				<path class="st6" d="M108.6,303.4c0-0.4,0.4-0.8,0.8-0.8c0.5,0,0.8,0.4,0.8,0.8v10.1l6-6.1c0.2-0.2,0.4-0.3,0.6-0.3
					c0.4,0,0.7,0.4,0.7,0.8c0,0.3-0.1,0.4-0.3,0.6l-3.6,3.5l3.9,5c0.1,0.2,0.2,0.3,0.2,0.6c0,0.4-0.3,0.8-0.8,0.8
					c-0.3,0-0.5-0.1-0.7-0.4l-3.8-4.8l-2.3,2.3v2.1c0,0.5-0.3,0.8-0.8,0.8c-0.5,0-0.8-0.4-0.8-0.8V303.4z"/>
			</g>
		</g>
		<g>
			<g>
				<path class="st5" d="M410.6,388.1c-1,3-3.7,5.4-7,5.8c-3.4,0.5-6.7-1.1-8.5-3.8"/>
				<g>
					<path class="st5" d="M413.3,358.5L413.3,358.5c2.5-3.8,3.7-8.5,3.1-13.4c-1.5-10.6-11.2-17.9-21.8-16.5
						c-10.6,1.5-17.9,11.2-16.5,21.8c0.7,4.9,3.1,9.1,6.6,12l0,0c0,0,0,0,0.1,0.1c0,0,0,0,0,0c0.7,0.6,4.1,3.6,4.9,8.8l10.6-1.5
						l10.6-1.5c-0.7-5.2,1.8-9,2.3-9.8c0,0,0,0,0-0.1C413.3,358.6,413.3,358.5,413.3,358.5z"/>
				</g>
				<path class="st5" d="M413.7,370.5c0.2,1.3-0.7,2.5-2,2.7l-21.5,3c-1.3,0.2-2.5-0.7-2.7-2l0,0c-0.2-1.3,0.7-2.5,2-2.7l21.5-3
					C412.3,368.3,413.5,369.2,413.7,370.5L413.7,370.5z"/>
				<path class="st5" d="M414.4,375.1c0.2,1.3-0.7,2.5-2,2.7l-21.5,3c-1.3,0.2-2.5-0.7-2.7-2l0,0c-0.2-1.3,0.7-2.5,2-2.7l21.5-3
					C413,373,414.2,373.9,414.4,375.1L414.4,375.1z"/>
				<path class="st5" d="M414.5,379.9c0.2,1.3-0.7,2.5-2,2.7l-20.4,2.8c-1.3,0.2-2.5-0.7-2.7-2l0,0c-0.2-1.3,0.7-2.5,2-2.7l20.4-2.8
					C413.1,377.7,414.3,378.6,414.5,379.9L414.5,379.9z"/>
				<path class="st5" d="M413.5,384.8c0.2,1.3-0.7,2.5-2,2.7l-17.2,2.4c-1.3,0.2-2.5-0.7-2.7-2l0,0c-0.2-1.3,0.7-2.5,2-2.7l17.2-2.4
					C412.1,382.6,413.3,383.5,413.5,384.8L413.5,384.8z"/>
				<path class="st5" d="M403.8,369.5c0,0-5.3-17.3-2.9-20.6c2.5-3.3,6.7,0.5,2.6,3c-4,2.5-13,3.3-12.6,0.3
					c0.5-3.1,7.1-5.2,7.1,18.2"/>
			</g>
		</g>
		<g>
			<line class="st5" x1="346.7" y1="362.4" x2="366.7" y2="362.4"/>
			<line class="st5" x1="346.7" y1="355.8" x2="366.7" y2="355.8"/>
			<line class="st5" x1="346.7" y1="349.1" x2="366.7" y2="349.1"/>
		</g>
		<g>
			<line class="st5" x1="335.2" y1="228.1" x2="326.4" y2="237"/>
			<line class="st5" x1="339.2" y1="232" x2="330.3" y2="240.9"/>
			<line class="st5" x1="343.1" y1="236" x2="334.2" y2="244.9"/>
		</g>
		<g>
			<line class="st5" x1="220.7" y1="309.9" x2="226.5" y2="315.8"/>
			<line class="st5" x1="218" y1="312.5" x2="223.9" y2="318.4"/>
			<line class="st5" x1="215.4" y1="315.1" x2="221.3" y2="321"/>
		</g>
		<g>
			<line class="st5" x1="568" y1="364.3" x2="576.5" y2="372.8"/>
			<line class="st5" x1="564.2" y1="368" x2="572.7" y2="376.5"/>
			<line class="st5" x1="560.4" y1="371.8" x2="568.9" y2="380.3"/>
		</g>
		<g>
			<line class="st5" x1="163.6" y1="211" x2="157.7" y2="216.8"/>
			<line class="st5" x1="166.2" y1="213.6" x2="160.3" y2="219.5"/>
			<line class="st5" x1="168.8" y1="216.2" x2="162.9" y2="222.1"/>
		</g>
		<g>
			<line class="st5" x1="291" y1="219.7" x2="285.1" y2="225.6"/>
			<line class="st5" x1="293.6" y1="222.3" x2="287.7" y2="228.2"/>
			<line class="st5" x1="296.2" y1="224.9" x2="290.3" y2="230.8"/>
		</g>
		<g>
			<line class="st5" x1="246" y1="284.5" x2="265.9" y2="284.5"/>
			<line class="st5" x1="246" y1="277.9" x2="265.9" y2="277.9"/>
			<line class="st5" x1="246" y1="271.2" x2="265.9" y2="271.2"/>
		</g>
		<g>
			<line class="st5" x1="135.5" y1="366.8" x2="152.3" y2="356"/>
			<line class="st5" x1="132" y1="361.2" x2="148.8" y2="350.4"/>
			<line class="st5" x1="128.4" y1="355.6" x2="145.2" y2="344.8"/>
		</g>
		<g>
			<g>
				<g>
					<circle class="st5" cx="182.6" cy="334.4" r="21.1"/>
				</g>
				<g>
					<polygon class="st5" points="175.5,346.4 175.5,322.3 196.3,334.4 					"/>
				</g>
			</g>
		</g>
		<g>
			<path class="st5" d="M558.4,276.2l-31.4,0.2c-4.5,0-8.1,3.6-8.1,8.1l0.1,25.4c0,4.5,3.6,8.1,8.1,8.1l10.5-0.1l5.6,11.9l5.3-11.9
				l10.1-0.1c4.5,0,8.1-3.6,8.1-8.1l-0.1-25.4C566.5,279.8,562.8,276.2,558.4,276.2z"/>
			<path class="st5" d="M555.7,310.1c0,0,1.9-4.1-2.8-6c-4.6-1.9-9-2.2-7.2-5.6c1.9-3.3,3.2-3.6,2.7-8.5c-0.4-4.9-5.5-5-5.5-5
				s-5-0.1-5.6,4.8c-0.6,4.9,0.7,5.2,2.5,8.6c1.8,3.4-2.7,3.6-7.4,5.3c-4.7,1.7-3,5.9-3,5.9"/>
		</g>
		<g>
			<path class="st5" d="M479.7,285.7c-0.2-2,0.9-3.6,2.8-3.6h6.8c1.9,0,3,1.5,2.8,3.6l-3,26.2c-0.2,1.9-1.5,3.1-3.2,3.1
				c-1.7,0-3-1.2-3.2-3.1L479.7,285.7z M485.9,319.6c3.5,0,6.1,2.6,6.1,5.9v0.1c0,3.3-2.6,5.9-6.1,5.9s-6.1-2.6-6.1-5.9v-0.1
				C479.9,322.2,482.5,319.6,485.9,319.6z"/>
		</g>
		<g>
			<path class="st5" d="M44.4,339.4h13.1c2.5,0,4.6-2,4.6-4.6v-15c0-2.5-2-4.6-4.6-4.6h-15c-2.5,0-4.6,2-4.6,4.6v15
				c0,1.1,0.4,2.1,1,2.9"/>
			<path class="st5" d="M41.4,315.5c0.7-1.6,2.3-2.8,4.2-2.8h15c2.5,0,4.6,2,4.6,4.6v15c0,2.1-1.4,3.9-3.4,4.4"/>
			<g>
				<line class="st5" x1="45.2" y1="332" x2="54.7" y2="322.6"/>
				<line class="st5" x1="54.7" y1="332" x2="45.2" y2="322.6"/>
			</g>
		</g>
		<path class="st5" d="M555.6,348c-0.2-0.7-0.8-1.2-1.5-1.3l-7.1-1l-3.2-6.5c-0.3-0.7-1-1.1-1.7-1.1c-0.7,0-1.4,0.4-1.7,1.1
			l-3.2,6.5l-7.1,1c-0.7,0.1-1.3,0.6-1.5,1.3c-0.2,0.7,0,1.4,0.5,2l5.2,5l-1.2,7.1c-0.1,0.7,0.2,1.4,0.8,1.9c0.6,0.4,1.4,0.5,2,0.1
			l6.4-3.3l6.4,3.3c0.3,0.1,0.6,0.2,0.9,0.2c0.4,0,0.8-0.1,1.1-0.4c0.6-0.4,0.9-1.2,0.8-1.9l-1.2-7.1l5.2-5
			C555.6,349.4,555.8,348.7,555.6,348z"/>
		<path class="st5" d="M45.1,361.3c-0.2-0.7-0.8-1.2-1.5-1.3l-7.1-1l-3.2-6.5c-0.3-0.7-1-1.1-1.7-1.1c-0.7,0-1.4,0.4-1.7,1.1
			l-3.2,6.5l-7.1,1c-0.7,0.1-1.3,0.6-1.5,1.3c-0.2,0.7,0,1.4,0.5,2l5.2,5l-1.2,7.1c-0.1,0.7,0.2,1.4,0.8,1.9c0.6,0.4,1.4,0.5,2,0.1
			l6.4-3.3l6.4,3.3c0.3,0.1,0.6,0.2,0.9,0.2c0.4,0,0.8-0.1,1.1-0.4c0.6-0.4,0.9-1.2,0.8-1.9l-1.2-7.1l5.2-5
			C45.1,362.8,45.3,362,45.1,361.3z"/>
		<g>
			<g>
				<path class="st5" d="M14.8,308.2C14.9,308.2,14.9,308.1,14.8,308.2L14.8,308.2z"/>
				<polygon class="st5" points="38.7,281.9 46.3,272.4 44.4,269.2 34.5,281.6 				"/>
				<path class="st5" d="M47.2,282.5l-32.2,25.6c-0.1,0-0.1,0.1-0.1,0.1l1.9,3.2l32.3-25.7L47.2,282.5z"/>
				<polygon class="st5" points="18.2,290 18.2,290 16.1,289.8 18,293.1 23.2,293.4 23.4,293.7 25.2,290.5 				"/>
				<line class="st5" x1="49.1" y1="285.7" x2="47.2" y2="282.5"/>
				<line class="st5" x1="44.4" y1="269.2" x2="46.3" y2="272.4"/>
				<line class="st5" x1="14.8" y1="308.2" x2="16.8" y2="311.4"/>
				<polygon class="st5" points="25.2,290.5 25.2,290.4 18.2,290 18.2,290 				"/>
				<g>
					<polygon class="st5" points="47.2,282.5 38.7,281.9 34.5,281.6 44.4,269.2 26.8,267.7 16.1,289.8 18.2,290 25.2,290.4 
						25.2,290.5 23.4,293.7 14.8,308.2 14.9,308.1 					"/>
				</g>
			</g>
		</g>
	</g>
	<g class="st3">
		<text transform="matrix(1 0 0 1 211.1546 87.2771)" class="st2 st7 st8 st9">Ruang Guru Dashboard</text>
	</g>
	<g class="st3">
		<path class="st4" d="M242.5,44.1v9.9c0,1.6,0.3,2.5,1,3.7c0.6,1.1,2.2,1.9,3.4,2.1l1.4,0.1h10c0.9,0,1.8-0.3,2.4-0.5
			c0.9-0.3,1.7-1,2.3-1.8c0.5-0.7,0.9-1.5,1-2.3c0.2-1.1,0.3-2,0-3c-0.1-0.2-0.1-0.4-0.2-0.6c-0.1-0.2-0.2-0.4-0.3-0.6
			c-0.4-0.7-0.8-1.3-1.4-1.8c-0.6-0.5-1.2-0.8-2-1.1c-0.9-0.2-1.9-0.4-2.8-0.4h-2.9v-3.6c0-1.4-0.6-3.2-1.6-4.3
			c-0.4-0.5-0.9-0.8-1.4-1.1l-0.5-0.3l-0.8-0.3c-1.4-0.3-2.9-0.3-4.2,0.3l-0.5,0.2c-0.1,0.1-0.1,0.1-0.2,0.1
			c-0.1,0.1-0.1,0.1-0.2,0.1c-0.1,0.1-0.1,0.1-0.2,0.2l-0.4,0.3c-0.5,0.4-1.1,1.4-1.3,2c-0.2,0.5-0.2,0.5-0.4,1.1
			C242.6,43.2,242.5,43.7,242.5,44.1 M238.7,68.3c0.1,0.1,0.7,0,0.8,0c9,0,18.1,0,27.1,0c0.2,0,0.3,0,0.4,0c0.7,0,1.6-0.4,2.1-0.6
			l0.8-0.5c0.5-0.4,1-0.9,1.3-1.4c0.2-0.3,0.4-0.6,0.5-0.9c0.3-0.6,0.5-1.6,0.5-2.3c0-1.6,0-27.1,0-27.5c-0.1-0.4-0.1-0.8-0.2-1.2
			c-0.1-0.4-0.2-0.9-0.5-1.2c-0.6-0.9-0.7-1.2-1.8-2.1c-0.5-0.4-1.2-0.7-1.8-0.9c-0.3-0.1-0.8-0.2-1.2-0.2c-9.1,0-18.2,0-27.3,0
			c-0.5,0-0.8,0-1.3,0.1c-0.5,0.1-0.6,0.2-1,0.3c-1.3,0.5-2.2,1.4-2.9,2.6c-0.3,0.6-0.2,0.3-0.4,1c-0.1,0.3-0.2,0.7-0.2,1.2
			c-0.1,0.1,0,0.7,0,0.8c0,9,0,18.1,0,27.2l0,0.3c0,0.1,0,0,0,0.1c0,1.2,0.8,2.6,1.6,3.5c0.2,0.2,0.9,0.7,1.1,0.8
			c0.1,0.1,0.3,0.2,0.4,0.2c0.1,0.1,0.5,0.2,0.7,0.3C237.7,68.2,238.1,68.3,238.7,68.3 M258.3,64h-10.8c-1.4,0-3.2-0.5-4.4-1.3
			c-0.6-0.4-1-0.7-1.6-1.2c-0.3-0.3-0.1-0.1-0.4-0.4c0-0.1-0.1-0.1-0.1-0.1c-0.6-0.6-1.2-1.7-1.6-2.4c-0.2-0.5-0.5-1.2-0.6-1.7
			l-0.2-2c0-0.3-0.1-11.1,0.1-11.8c0.1-0.4,0.1-0.7,0.2-1.1c0.2-0.8,0.5-1.6,0.8-2.3c0.5-1,1-1.8,1.8-2.6c0.4-0.4,0.7-0.7,1.2-1
			c0.4-0.3,0.5-0.3,1-0.6c0.2-0.1,0.2-0.1,0.4-0.2l0.9-0.4c0.4-0.2,1-0.4,1.4-0.5c0.7-0.2,1.4-0.3,2.2-0.3c1.4-0.1,3.2,0.3,4.5,1
			c0.2,0.1,0.2,0.1,0.4,0.2c0.1,0.1,0.2,0.1,0.4,0.2c0.3,0.2,0.3,0.2,0.5,0.4l0.5,0.4c0.1,0.1,0.1,0.1,0.2,0.1
			c0.1,0.1,0.1,0.1,0.2,0.1c0.5,0.4,1.3,1.4,1.7,1.9c0.2,0.3,0.3,0.5,0.5,0.8c0.3,0.5,0.7,1.5,0.9,2.1c0.3,0.8,0.3,1.8,0.4,2.7
			c0.9,0,1.5,0.1,2.3,0.3c0.3,0.1,0.6,0.2,0.9,0.3c0.1,0.1,0.3,0.1,0.4,0.2c0.2,0.1,0.3,0.1,0.5,0.2c0.1,0,0.1,0.1,0.2,0.1
			c0.1,0,0.1,0.1,0.2,0.1c0.2,0.1,0.3,0.1,0.4,0.2c1.1,0.7,2.1,1.5,2.9,2.6c0.4,0.6,0.9,1.2,1.2,1.9c0.2,0.4,0.5,1.3,0.6,1.8
			c0.5,2.5,0.3,4-0.6,6.4c-0.2,0.4-0.6,1.3-0.9,1.7c-0.7,1.3-1.7,2-2.9,2.8l-0.8,0.5c-0.2,0.1-0.3,0.1-0.4,0.2
			c-0.3,0.1-0.6,0.3-0.9,0.4c-0.3,0.1-0.6,0.2-1,0.3C260,63.9,259.1,64,258.3,64"/>
		<path class="st4" d="M338.5,44.8h-2h-0.3h-0.2V45v0.6V48v0.2h0.2h2.4v12.1c0,4.8,5,5.1,8.5,3.7c0.2-0.1,1.4-0.5,1.4-0.7l-0.9-3.3
			c-0.4,0-1.5,0.8-3,0.8c-1.3,0-1.7-0.7-1.8-1.7V48.2h4.2V45v-0.2h-0.2h-4v-6.4h-4.3V44.8z"/>
		<path class="st4" d="M319.7,59l-1.8,2.9c1.3,0.8,0.8,0.7,2.3,1.4c0.9,0.4,1.9,0.7,2.8,1c2,0.5,4.7,0.7,6.7,0.1
			c1-0.3,1.7-0.6,2.6-1.1c2.6-1.7,3.3-5.7,1.2-7.8c-1.2-1.2-3.7-2-5.2-2.3c-1-0.2-2-0.5-3-0.8c-0.8-0.2-2-0.5-2.4-1.4
			c-0.4-0.9-0.1-2.1,0.7-2.7c0.4-0.3,0.9-0.4,1.3-0.6c1.7-0.5,4.5,0.2,6.1,1.2l1.2,0.8l1.8-2.6c-0.3-0.4-1.8-1.2-2.3-1.4
			c-2.5-1.3-6.7-1.6-9.3-0.4c-3,1.4-4.5,4.5-3.4,7.3c1,2.6,5.2,3.2,7.5,3.9c1.8,0.5,4.6,1,3.8,3.4c-0.6,2-4,1.9-5.6,1.6
			c-1.3-0.2-2.8-0.9-4-1.6C320.6,59.5,320,59.1,319.7,59"/>
		<path class="st4" d="M306.3,48.1c3.1,0,5.6,2.9,5.6,6.4c0,3.6-2.5,6.4-5.6,6.4s-5.6-2.9-5.6-6.4C300.7,51,303.2,48.1,306.3,48.1
			 M306.3,44.4c5.5,0,10,4.5,10,10.2s-4.5,10.2-10,10.2c-5.5,0-10-4.5-10-10.2S300.8,44.4,306.3,44.4"/>
		<path class="st4" d="M284.5,48.1c3.1,0,5.6,2.9,5.6,6.4c0,3.6-2.5,6.4-5.6,6.4c-3.1,0-5.6-2.9-5.6-6.4
			C278.9,51,281.4,48.1,284.5,48.1 M284.5,44.4c5.5,0,10,4.5,10,10.2s-4.5,10.2-10,10.2s-10-4.5-10-10.2S278.9,44.4,284.5,44.4"/>
	</g>
</g>
</svg>
